<?xml version="1.0" encoding="utf-8"?>
<!-- Generator: Adobe Illustrator 25.2.0, SVG Export Plug-In . SVG Version: 6.00 Build 0)  -->
<svg version="1.1" id="圖層_1" xmlns="http://www.w3.org/2000/svg" xmlns:xlink="http://www.w3.org/1999/xlink" x="0px" y="0px"
	 viewBox="0 0 34 31" style="enable-background:new 0 0 34 31;" xml:space="preserve">
<style type="text/css">
	.st0{fill:#FFFFFF;}
</style>
<g>
	<path class="st0" d="M28,13.1c-0.5,0-1-0.4-1-1V6.3h-5.7c-0.5,0-1-0.4-1-1c0-0.6,0.4-1,1-1H28c0.5,0,1,0.4,1,1v6.8
		C29,12.6,28.5,13.1,28,13.1z"/>
	<path class="st0" d="M6,13.1c-0.5,0-1-0.4-1-1V5.3c0-0.6,0.4-1,1-1h6.7c0.5,0,1,0.4,1,1c0,0.6-0.4,1-1,1H7v5.8
		C7,12.6,6.5,13.1,6,13.1z"/>
	<path class="st0" d="M28,27.7h-6.7c-0.5,0-1-0.4-1-1c0-0.6,0.4-1,1-1H27v-5.8c0-0.6,0.4-1,1-1s1,0.4,1,1v6.8
		C29,27.2,28.5,27.7,28,27.7z"/>
	<path class="st0" d="M12.7,27.7H6c-0.5,0-1-0.4-1-1v-6.8c0-0.6,0.4-1,1-1c0.5,0,1,0.4,1,1v5.8h5.7c0.5,0,1,0.4,1,1
		C13.7,27.2,13.2,27.7,12.7,27.7z"/>
	<path class="st0" d="M24.7,16.9H9.3c-0.5,0-1-0.4-1-1c0-0.6,0.4-1,1-1h15.3c0.5,0,1,0.4,1,1C25.6,16.4,25.2,16.9,24.7,16.9z"/>
</g>
</svg>
