<svg width="87" height="83" viewBox="0 0 87 83" fill="none" xmlns="http://www.w3.org/2000/svg">
<rect width="87" height="83" rx="5" fill="white"/>
<rect x="0.5" y="0.5" width="86" height="82" rx="4.5" stroke="#1FA2D5" stroke-opacity="0.15"/>
<path d="M40.232 62.324L40.364 62.996C41.12 62.924 41.972 62.864 42.872 62.768C42.944 62.948 42.992 63.116 43.016 63.26L43.592 62.984C43.508 62.528 43.172 61.808 42.848 61.256L42.296 61.484C42.416 61.688 42.536 61.928 42.644 62.168L41.372 62.252C41.948 61.46 42.584 60.428 43.088 59.576L42.44 59.264C42.248 59.684 41.984 60.176 41.696 60.668C41.552 60.5 41.36 60.32 41.168 60.128C41.468 59.648 41.852 58.952 42.152 58.352L41.456 58.076C41.288 58.568 40.988 59.24 40.724 59.756C40.628 59.672 40.532 59.612 40.448 59.54L40.076 60.032C40.532 60.38 41.036 60.86 41.336 61.244C41.096 61.64 40.844 62 40.616 62.3L40.232 62.324ZM36.092 62.444L36.224 63.152C36.956 63.08 37.784 62.996 38.648 62.924C38.696 63.068 38.72 63.212 38.744 63.332L39.332 63.08C39.248 62.624 38.972 61.892 38.66 61.352L38.108 61.556C38.228 61.784 38.336 62.036 38.432 62.3L37.256 62.372C37.868 61.556 38.54 60.464 39.056 59.576L38.408 59.264C38.216 59.684 37.952 60.176 37.664 60.668C37.532 60.5 37.352 60.32 37.148 60.14C37.448 59.648 37.808 58.94 38.12 58.352L37.424 58.076C37.256 58.568 36.968 59.24 36.704 59.756C36.608 59.684 36.512 59.612 36.416 59.54L36.044 60.032C36.488 60.38 37.004 60.872 37.316 61.256C37.04 61.676 36.764 62.084 36.512 62.42L36.092 62.444ZM41.876 64.964C41.648 65.492 41.324 65.984 40.928 66.428C40.76 65.96 40.616 65.408 40.496 64.772H43.424V64.052H42.44L42.692 63.788C42.416 63.512 41.876 63.164 41.42 62.924L41 63.356C41.336 63.536 41.72 63.812 42.008 64.052H40.376C40.124 62.384 39.992 60.308 40.016 57.968H39.212C39.224 60.224 39.332 62.312 39.596 64.052H36.236L36.284 63.98C36.104 63.644 35.288 62.336 34.976 61.904V61.364H36.272V60.548H34.976V57.956H34.172V60.548H32.66V61.364H34.088C33.764 62.984 33.092 64.88 32.408 65.876C32.552 66.068 32.756 66.404 32.852 66.62C33.344 65.852 33.812 64.628 34.172 63.356V68.9H34.976V62.912C35.3 63.512 35.672 64.244 35.828 64.628L36.2 64.1V64.772H37.052C36.932 66.2 36.608 67.544 35.516 68.3C35.708 68.432 35.936 68.708 36.056 68.888C36.932 68.252 37.376 67.316 37.628 66.248C38.132 66.596 38.636 66.98 38.924 67.256L39.428 66.644C39.056 66.308 38.36 65.828 37.772 65.468C37.796 65.24 37.832 65.012 37.844 64.772H39.716C39.872 65.636 40.076 66.392 40.328 67.016C39.704 67.556 38.936 68 38.084 68.336C38.24 68.48 38.456 68.756 38.564 68.9C39.332 68.588 40.04 68.18 40.652 67.7C41.108 68.492 41.672 68.936 42.392 68.936C43.184 68.936 43.448 68.54 43.592 67.196C43.412 67.124 43.136 66.968 42.98 66.8C42.92 67.88 42.788 68.168 42.44 68.168C41.984 68.168 41.588 67.82 41.252 67.184C41.828 66.62 42.308 65.972 42.644 65.252L41.876 64.964ZM46.772 64.652V63.416H49.52V64.652H46.772ZM46.772 61.484H49.52V62.708H46.772V61.484ZM53.228 61.484V62.708H50.42V61.484H53.228ZM53.228 64.652H50.42V63.416H53.228V64.652ZM55.376 66.368H50.42V65.384H54.116V60.74H50.42V59.864H54.968V59.048H50.42V57.968H49.52V59.048H45.032V59.864H49.52V60.74H45.92V65.384H49.52V66.368H44.672V67.172H49.52V68.948H50.42V67.172H55.376V66.368Z" fill="#A4A4A4"/>
<path d="M24.6596 45.3145C25.2723 47.5608 27.3294 49.2173 29.767 49.2173C32.2049 49.2173 34.2619 47.5607 34.8746 45.3145H24.6596Z" fill="#0697DB" fill-opacity="0.8"/>
<path d="M54.7502 45.3145C55.3628 47.5608 57.4198 49.2173 59.8576 49.2173C62.2953 49.2173 64.3523 47.5607 64.965 45.3145H54.7502Z" fill="#0697DB" fill-opacity="0.8"/>
<path d="M63.3581 32.1385L57.3523 27.8832L57.3588 24.3275C57.6414 24.5399 57.9915 24.6674 58.3724 24.6674C59.306 24.6674 60.0628 23.9106 60.0628 22.977V19.4731C60.0628 18.5395 59.306 17.7827 58.3724 17.7827C57.8729 17.7827 57.4255 18.0006 57.1161 18.345C56.7879 18.1016 56.3829 17.9559 55.9429 17.9559C55.0084 17.9559 54.1499 18.2568 53.4534 18.7634L46.7808 20.7587C45.8864 21.0261 45.3783 21.968 45.6457 22.8625C45.8648 23.5955 46.5367 24.0691 47.2645 24.0691C47.4249 24.0691 47.5879 24.0461 47.7496 23.9978L51.7208 22.8103L51.6473 30.879L50.5692 33.9488C49.1236 37.412 45.7384 39.6672 41.9855 39.6673H39.2569C38.6407 36.9684 39.1217 34.0985 40.6537 31.7244H25.5276C22.293 32.9861 20 36.1298 20 39.8111V42.2015C20 42.8217 20.3533 43.3584 20.8691 43.6241H51.0165C51.4437 39.1215 55.245 35.587 59.8576 35.587C61.6245 35.587 63.2712 36.1078 64.6562 37.0008L64.7018 36.972C65.4561 35.2459 64.895 33.2275 63.3581 32.1385Z" fill="#0697DB" fill-opacity="0.8"/>
<path d="M41.0654 27.0714H30.6165C29.6829 27.0714 28.9261 27.8282 28.9261 28.7618C28.9261 29.2696 29.1511 29.7238 29.5056 30.0338H42.1762C42.5307 29.724 42.7558 29.2696 42.7558 28.7618C42.7558 27.8282 41.9989 27.0714 41.0654 27.0714Z" fill="#0697DB" fill-opacity="0.8"/>
<path d="M59.8576 37.2774C56.1779 37.2774 53.1346 40.0552 52.7151 43.6241H67C66.5804 40.0553 63.5372 37.2774 59.8576 37.2774Z" fill="#0697DB" fill-opacity="0.8"/>
</svg>
